# ProBuilder 5.0.6
# https://unity3d.com/unity/features/worldbuilding/probuilder
# 01/09/2022 01:48:29

mtllib ./Spike.mtl
o Spike

g Cone
v -0.01 0 0
v -0.004999999 0 0.008660253
v 0 0.02 0
v 0 0 0
v 0.005000003 0 0.008660253
v 0.009999998 0 0
v 0.004999999 0 -0.008660253
v -0.004999999 0 -0.008660253

vt 0 0
vt 0.02 0
vt 0.01 0.02645751
vt -0.01 0
vt -0.004999999 0.008660253
vt 0.005000003 0.008660253
vt 0.009999998 0
vt 0.004999999 -0.008660253
vt -0.004999999 -0.008660253

vn -0.8944272 0.4472136 0
vn -0.4472136 0.4472136 0.7745967
vn 1.000012E-07 1 -8.750101E-08
vn 0 -1 0
vn 0.4472137 0.4472136 0.7745966
vn 0.8944272 0.4472135 -1.509363E-07
vn 0.4472136 0.4472135 -0.7745966
vn -0.4472136 0.4472136 -0.7745967

usemtl Lit
f 1/1/1 2/2/2 3/3/3
f 4/1/4 2/5/4 1/4/4
f 2/1/2 5/2/5 3/3/3
f 4/1/4 5/6/4 2/5/4
f 5/1/5 6/2/6 3/3/3
f 4/1/4 6/7/4 5/6/4
f 6/1/6 7/2/7 3/3/3
f 4/1/4 7/8/4 6/7/4
f 7/1/7 8/2/8 3/3/3
f 4/1/4 8/9/4 7/8/4
f 8/1/8 1/2/1 3/3/3
f 4/1/4 1/4/4 8/9/4

